PathFileType	4	(X/Y/Z)	/Users/niels/Desktop/University/Third Semester/Perception and Action/Exam/Gymnastics Motion Tracking/Code for Gym Tracking/Analyzed Data/Webcam_Backflip/id3_3_baseline_Sports2D/id3_3_baseline_Sports2D_px_person00.trc
DataRate	CameraRate	NumFrames	NumMarkers	Units	OrigDataRate	OrigDataStartFrame	OrigNumFrames
29.81132075471698	29.81132075471698	12	22	m	29.81132075471698	59	159
Frame#	Time	Hip			RHip			RKnee			RAnkle			RBigToe			RSmallToe			RHeel			LHip			LKnee			LAnkle			LBigToe			LSmallToe			LHeel			Neck			Head			Nose			RShoulder			RElbow			RWrist			LShoulder			LElbow			LWrist		
		X1	Y1	Z1	X2	Y2	Z2	X3	Y3	Z3	X4	Y4	Z4	X5	Y5	Z5	X6	Y6	Z6	X7	Y7	Z7	X8	Y8	Z8	X9	Y9	Z9	X10	Y10	Z10	X11	Y11	Z11	X12	Y12	Z12	X13	Y13	Z13	X14	Y14	Z14	X15	Y15	Z15	X16	Y16	Z16	X17	Y17	Z17	X18	Y18	Z18	X19	Y19	Z19	X20	Y20	Z20	X21	Y21	Z21	X22	Y22	Z22
59	1.9791139240506328	0.9752686989012621	-0.6519404980921065	0.0	0.9779369925464639	-0.6521716599954186	0.0	1.035129992376719	-0.7531803215317632	0.0	0.9849559080395293	-0.8476668073766462	0.0	1.0270726524600529	-0.8724987077181418	0.0	1.012098995911773	-0.8743237884647493	0.0	0.9698224222620425	-0.8554149830352147	0.0	0.9777571321651208	-0.6499992153059012	0.0	1.0265199426728628	-0.7492304622859064	0.0	0.9824508693041573	-0.8429466845645431	0.0	1.0268397944151835	-0.867031427197905	0.0	1.0127330591395234	-0.8650709278385024	0.0	0.9669648402358232	-0.8485575164246411	0.0	1.0186437816345588	-0.5020691769112574	0.0	1.0292308963339898	-0.43157519848133924	0.0	1.0503573820150847	-0.4632580171047745	0.0	1.0105314725905772	-0.5234510665048403	0.0	1.041556451368686	-0.5729772571156624	0.0	1.088704547947446	-0.5991040972805047	0.0	1.014168625540005	-0.5166299879600101	0.0	1.0489030870878613	-0.5607498401258404	0.0	1.094704890233338	-0.5779701283390963	0.0
60	2.0126582278481013	0.9827518446143622	-0.652495788357701	0.0	0.9852989853669265	-0.6527908509344309	0.0	1.0315744234673172	-0.757259406009914	0.0	0.9852349208785804	-0.8534924278237787	0.0	1.0259891736169238	-0.876751529117166	0.0	1.0100750733031068	-0.8791996127696307	0.0	0.9701653152200158	-0.8624576354821537	0.0	0.9841674374410945	-0.6506152144156935	0.0	1.0239123650437842	-0.7540743750260513	0.0	0.9831858324019137	-0.8491894745388275	0.0	1.0247683899431024	-0.8715730478476863	0.0	1.0098834576969402	-0.8697160573944138	0.0	0.9677487953884605	-0.8560236916707776	0.0	1.0104315272287596	-0.4970953363928359	0.0	1.0063672398227148	-0.4245068513277475	0.0	1.0355085025771114	-0.45317780326149887	0.0	1.0057653743699084	-0.5161563334556946	0.0	1.0553072507819783	-0.5462486255929424	0.0	1.1144475988322398	-0.5501050774715105	0.0	1.0078638331193068	-0.5097413633506284	0.0	1.058678627105707	-0.5333417385084712	0.0	1.1120365002409045	-0.5282175587219166	0.0
61	2.0462025316455694	0.992318253243671	-0.6434380141974917	0.0	0.994613872337414	-0.6436669300656104	0.0	1.0289178115819027	-0.7515632518511998	0.0	0.9855256829111155	-0.8508158642281255	0.0	1.0228727835710263	-0.8733985574110243	0.0	1.006933695692792	-0.8763819830139151	0.0	0.9709363840747507	-0.8614830641384748	0.0	0.9930053435646812	-0.6412686417475008	0.0	1.0232887532442108	-0.7491341290877809	0.0	0.9843780226687671	-0.8467876588630215	0.0	1.0222751141936746	-0.868709373669204	0.0	1.0076152617022658	-0.8667874894804617	0.0	0.9691096600138536	-0.8551362417775553	0.0	1.0028799746567294	-0.486190179133421	0.0	0.9842305509444759	-0.41343248388688936	0.0	1.0205270229463246	-0.4379756750161745	0.0	1.00122254243479	-0.5011010034894953	0.0	1.0604423512481445	-0.5062385568247268	0.0	1.1212093565213492	-0.487473853860581	0.0	1.001496658429619	-0.49531625729386625	0.0	1.0597199088298213	-0.49479186095285305	0.0	1.1120766253415044	-0.4680000339461415	0.0
62	2.079746835443038	1.0035417804095674	-0.6242349523538007	0.0	1.0052961362130255	-0.6244447742078725	0.0	1.0292672489409065	-0.7356064900978966	0.0	0.9868218570151057	-0.8384286384466508	0.0	1.018558325638966	-0.8624834728675339	0.0	1.0034158478091049	-0.8656050557687578	0.0	0.9730406697282702	-0.8506936993589083	0.0	1.0039132641943809	-0.6216506671564026	0.0	1.0264892944854471	-0.7336960800286845	0.0	0.9867267259333674	-0.8342632927001828	0.0	1.020127409215423	-0.8580975687410113	0.0	1.0067528402464976	-0.8558412963875505	0.0	0.9718958407899774	-0.843951512320055	0.0	0.9956076452622722	-0.46943261374892065	0.0	0.9630906483724467	-0.39869396041401534	0.0	1.0050999154650058	-0.41822351058248963	0.0	0.9959923459211134	-0.4790402700984554	0.0	1.056220672290112	-0.45851228398027594	0.0	1.1098078054871412	-0.4207788100967373	0.0	0.9948621865259962	-0.47431859638799195	0.0	1.052948448110702	-0.4507921319300881	0.0	1.0979237971133098	-0.4071094966586561	0.0
63	2.113291139240506	1.0153990591091728	-0.5958972759175101	0.0	1.0161546302800721	-0.596197255658673	0.0	1.035028815699466	-0.7096922192414553	0.0	0.9905285274548389	-0.8156717635068081	0.0	1.0149633746903006	-0.8436233786266685	0.0	1.0010445203018776	-0.8463647559207554	0.0	0.9775557257345834	-0.8289128416745717	0.0	1.0159505316428876	-0.5929146795741881	0.0	1.035506453910276	-0.7078561186012847	0.0	0.9914006508761063	-0.8107753778121742	0.0	1.0196743937054793	-0.8389594087486326	0.0	1.0083232403417024	-0.8360255329528069	0.0	0.9771771867733	-0.8212473507509931	0.0	0.9881129884249232	-0.4478967854422671	0.0	0.9426876403550941	-0.3816881206867647	0.0	0.988702744334283	-0.3952831025805354	0.0	0.989442529233967	-0.45212487334874035	0.0	1.0442211215602155	-0.4094169829581935	0.0	1.0850946629403018	-0.35816760990520546	0.0	0.9878799587317526	-0.44884540534077283	0.0	1.0409086849622449	-0.40731804114153847	0.0	1.0752997061997178	-0.35341013872717164	0.0
64	2.1468354430379746	1.0265537324215352	-0.5607017369300282	0.0	1.0258950462487348	-0.561054836810589	0.0	1.0480034768440056	-0.6745885006172051	0.0	0.9981803313009001	-0.782654368674115	0.0	1.0149918497949273	-0.8162541177024414	0.0	1.002327520960149	-0.8181780645201862	0.0	0.9855912469729938	-0.7960478395606182	0.0	1.0277810726284045	-0.5573623026622766	0.0	1.051449918037354	-0.6722645112528595	0.0	0.9997248793093012	-0.7764863315788662	0.0	1.0226935536923545	-0.8105384641932297	0.0	1.0135654271662025	-0.8066533529309947	0.0	0.985894261277032	-0.7870339739673474	0.0	0.9799040690699964	-0.4232814187008419	0.0	0.9227960751043296	-0.3644213329184838	0.0	0.9710485824937807	-0.37098192137275326	0.0	0.9814572056539494	-0.4230894192075968	0.0	1.0277647745691392	-0.36462973469833526	0.0	1.0541151257483319	-0.3051554453576062	0.0	0.9805398820391692	-0.4213314831678427	0.0	1.0269241145016923	-0.3694602896147442	0.0	1.0508931126855603	-0.31208108528283046	0.0
65	2.180379746835443	1.035717549564173	-0.5219098339231159	0.0	1.0336188984487287	-0.5221111013198061	0.0	1.06820404574658	-0.631267906137604	0.0	1.0112235271896932	-0.740332965542814	0.0	1.0219249523296199	-0.7798415184195857	0.0	1.010458083925656	-0.7807930893448615	0.0	0.998342105410891	-0.7532642779979475	0.0	1.0378459822961246	-0.5183011822786708	0.0	1.0733796330659118	-0.6279574296904779	0.0	1.0128471346152572	-0.7324929383723566	0.0	1.031122885269017	-0.772420412787587	0.0	1.0238776705526065	-0.7675596810736576	0.0	0.9988168896666726	-0.7425053740886466	0.0	0.9706192093526044	-0.3975918720629052	0.0	0.9036899518488537	-0.3488009261461343	0.0	0.9524848748912391	-0.3472985183445252	0.0	0.9722682197342308	-0.3944245552060146	0.0	1.0108931036347457	-0.3280941032534205	0.0	1.0241641498363674	-0.2644116445645337	0.0	0.9727837014691997	-0.3940445454771041	0.0	1.0142994455667873	-0.3407306723352694	0.0	1.0310336811025267	-0.2854881845967942	0.0
66	2.213924050632911	1.0420492224589575	-0.48339125866058125	0.0	1.0391039259197679	-0.48324780075077733	0.0	1.0931382336286222	-0.5807967613736977	0.0	1.0305418500377221	-0.6902486927082825	0.0	1.038313138028026	-0.7339264492054921	0.0	1.0282233036941442	-0.734230365980121	0.0	1.0168335234407668	-0.7026114161763262	0.0	1.044782214568173	-0.4797702674917181	0.0	1.0979586896289413	-0.5763701165823351	0.0	1.0314154769931962	-0.6804210598665325	0.0	1.0466703631098533	-0.724493760867497	0.0	1.0406742081392952	-0.7190501686041971	0.0	1.0165727978687673	-0.6896453633566288	0.0	0.9603057425032084	-0.37291752685234475	0.0	0.886168592338351	-0.33606111608128525	0.0	0.933990667518075	-0.32598633454727965	0.0	0.9623795645028675	-0.36805428144627744	0.0	0.9972269885962259	-0.3016170646217915	0.0	1.0012211454774949	-0.23604248161728672	0.0	0.9645750439016675	-0.3689674190940991	0.0	1.005432472737862	-0.3224671359594743	0.0	1.0200400927583522	-0.27275696882365746	0.0
67	2.2474683544303797	1.0456198902899652	-0.44875832966485674	0.0	1.0429274712454402	-0.44822544078102855	0.0	1.1181840911087726	-0.5243715477802159	0.0	1.0557998503870625	-0.63408173000139	0.0	1.064933759802389	-0.6781619139265824	0.0	1.0566427920921635	-0.678648789898911	0.0	1.0412803744752668	-0.6463722437737356	0.0	1.048139242343503	-0.44562149431248516	0.0	1.120295718558074	-0.5194233974657447	0.0	1.0551428383806307	-0.6222934332870448	0.0	1.0702120956512193	-0.6671360450340597	0.0	1.0649065634169195	-0.6618895092498891	0.0	1.0393851423995484	-0.6311409320521756	0.0	0.9496026602206096	-0.3511467757886508	0.0	0.8712677164194265	-0.32659594055270935	0.0	0.9168648975245963	-0.308300916241143	0.0	0.9527038508183425	-0.3453671260794599	0.0	0.9891080482865272	-0.2849289858147606	0.0	0.9889040408995162	-0.21823977127091795	0.0	0.956142704448781	-0.347727029150037	0.0	1.0011836377535313	-0.3133985555916903	0.0	1.0188045953635023	-0.26990401123878316	0.0
68	2.281012658227848	1.0476604996441934	-0.42027870042514676	0.0	1.0463339601657624	-0.4194390505972554	0.0	1.1377815957409574	-0.46375301853155365	0.0	1.085030156809836	-0.5733711714270124	0.0	1.0998807420622867	-0.6124965814095612	0.0	1.0937957650296135	-0.6142463986862197	0.0	1.07053873715348	-0.586508451351028	0.0	1.0489658593561753	-0.4182060055935981	0.0	1.1355244373674702	-0.45959499242476326	0.0	1.0823698842359954	-0.5604818500236738	0.0	1.1007568781631007	-0.6014668617145061	0.0	1.0959201193772592	-0.5973072457703634	0.0	1.0665922294349988	-0.5701231815949669	0.0	0.9396757870238005	-0.3338012638499223	0.0	0.8600083589230465	-0.32030384223246794	0.0	0.9025698255943067	-0.29511805244861655	0.0	0.9445630971457399	-0.3273325926658919	0.0	0.9872377765188854	-0.27614445030093243	0.0	0.9879080167587222	-0.20831426726417038	0.0	0.9482212457608387	-0.33154838583515245	0.0	1.0010185328295873	-0.31030500953505824	0.0	1.0248718520665254	-0.27145316336993425	0.0
69	2.3145569620253164	1.0501600658719379	-0.39824635865557756	0.0	1.0507775734337157	-0.39718229257795495	0.0	1.1470231941228737	-0.4019495598446176	0.0	1.1147097822089063	-0.5095779755675696	0.0	1.1379091305936986	-0.537683474369608	0.0	1.1342515837722276	-0.5416381408251656	0.0	1.1018856868268585	-0.5244270960865172	0.0	1.0495926540701275	-0.3975320540902329	0.0	1.1403187292732224	-0.4000256323870792	0.0	1.110030414600559	-0.49714046366421266	0.0	1.1344094322707312	-0.5292031741068342	0.0	1.1301731068093346	-0.526842206147198	0.0	1.0962105375534417	-0.5089926938649355	0.0	0.9320449426433665	-0.3220652446641161	0.0	0.8533244669474512	-0.31730501493298313	0.0	0.8926425944328116	-0.28726262981481077	0.0	0.9393620138293107	-0.31464825248598693	0.0	0.9909138084424274	-0.27268202562392374	0.0	0.9960895778094442	-0.20382573537891374	0.0	0.9420867510923054	-0.3212930969552485	0.0	1.0037129621998697	-0.3096122944854673	0.0	1.0339408804003394	-0.272806265311952	0.0
70	2.348101265822785	1.0549508102269094	-0.38111813280074597	0.0	1.0573947412863784	-0.37974733492183527	0.0	1.1433107951604478	-0.3433437795300427	0.0	1.1403854089377465	-0.4443971995288395	0.0	1.1710467804738274	-0.4561668111589564	0.0	1.1699472874938857	-0.4627802786528265	0.0	1.131185336652585	-0.46113322317320926	0.0	1.0525354502887894	-0.3815947899843196	0.0	1.133778113004612	-0.34461584840227677	0.0	1.1341350236299732	-0.43384531085393163	0.0	1.1645521836202501	-0.45294678372125385	0.0	1.1611516354856142	-0.4528102448067384	0.0	1.124754955004698	-0.448532666472806	0.0	0.9283324108668595	-0.31678051073135166	0.0	0.8521186317482928	-0.3186246088636753	0.0	0.8883760274666282	-0.285767485946421	0.0	0.9381934445308878	-0.30782651089362145	0.0	0.9987019907562528	-0.2722393559135514	0.0	1.0092582918584436	-0.20324346994616216	0.0	0.9392716238327876	-0.3174519247513171	0.0	1.0078966050621998	-0.30843123836342046	0.0	1.0416120521127026	-0.27183124638487627	0.0
